<svg width="14" height="14" viewBox="0 0 14 14" fill="none" xmlns="http://www.w3.org/2000/svg">
<path id="Vector" d="M13.2563 3.0313C13.2226 2.96565 13.1738 2.9089 13.1139 2.86568C13.0541 2.82245 12.9849 2.79397 12.912 2.78254C12.8391 2.77112 12.7645 2.77708 12.6943 2.79995C12.6241 2.82281 12.5603 2.86192 12.5081 2.91411L10.7081 4.71528C10.6197 4.80236 10.5006 4.85117 10.3766 4.85117C10.2525 4.85117 10.1334 4.80236 10.0451 4.71528L9.26696 3.93598C9.22342 3.89245 9.18889 3.84078 9.16532 3.7839C9.14176 3.72702 9.12963 3.66606 9.12963 3.60449C9.12963 3.54292 9.14176 3.48196 9.16532 3.42508C9.18889 3.3682 9.22342 3.31652 9.26696 3.273L11.0593 1.48032C11.1131 1.4266 11.1529 1.36061 11.1755 1.28806C11.1981 1.21551 11.2027 1.13855 11.1889 1.06383C11.1751 0.989108 11.1434 0.918854 11.0964 0.859122C11.0494 0.79939 10.9887 0.75197 10.9193 0.720945C9.5655 0.115672 7.87566 0.431492 6.81013 1.48911C5.90486 2.38794 5.63503 3.79243 6.07038 5.34253C6.09386 5.42519 6.09399 5.51273 6.07077 5.59547C6.04756 5.6782 6.00189 5.75289 5.93884 5.81128L1.0615 10.2659C0.871492 10.4365 0.718231 10.644 0.611066 10.8758C0.503901 11.1075 0.445078 11.3587 0.438185 11.614C0.431292 11.8693 0.476475 12.1232 0.570976 12.3605C0.665477 12.5977 0.807316 12.8132 0.98784 12.9938C1.16836 13.1744 1.38379 13.3163 1.62097 13.4109C1.85816 13.5055 2.11213 13.5508 2.36739 13.5441C2.62266 13.5373 2.87387 13.4786 3.1057 13.3715C3.33753 13.2644 3.54511 13.1113 3.71579 12.9213L8.21814 8.03315C8.27568 7.97091 8.34911 7.92555 8.43052 7.90196C8.51194 7.87836 8.59824 7.87743 8.68015 7.89926C9.12146 8.02018 9.57668 8.08292 10.0342 8.08588C11.0128 8.08588 11.8715 7.76919 12.4908 7.15893C13.6378 6.02895 13.8127 4.11235 13.2563 3.0313ZM2.41472 12.6005C2.22177 12.6216 2.02704 12.5822 1.85741 12.4879C1.68777 12.3936 1.55159 12.249 1.46767 12.0739C1.38374 11.8989 1.3562 11.7022 1.38886 11.5108C1.42151 11.3195 1.51274 11.143 1.64996 11.0058C1.78719 10.8685 1.96363 10.7772 2.15495 10.7445C2.34627 10.7118 2.54302 10.7392 2.71807 10.8231C2.89311 10.907 3.03781 11.0431 3.13219 11.2127C3.22657 11.3823 3.26599 11.577 3.24499 11.77C3.2219 11.9823 3.12701 12.1803 2.97602 12.3314C2.82504 12.4824 2.62702 12.5774 2.41472 12.6005Z" fill="#0075FF"/>
</svg>
