<svg width="14" height="7" viewBox="0 0 14 7" fill="none" xmlns="http://www.w3.org/2000/svg">
<path id="Vector" d="M0.4375 4.5152C0.4375 4.95032 0.610351 5.36762 0.918028 5.67529C1.2257 5.98297 1.643 6.15582 2.07812 6.15582H11.9219C12.357 6.15582 12.7743 5.98297 13.082 5.67529C13.3896 5.36762 13.5625 4.95032 13.5625 4.5152V0.003479H0.4375V4.5152ZM2.37109 2.28864C2.37109 2.05553 2.46369 1.83198 2.62852 1.66715C2.79335 1.50233 3.0169 1.40973 3.25 1.40973H4.65625C4.88935 1.40973 5.1129 1.50233 5.27773 1.66715C5.44256 1.83198 5.53515 2.05553 5.53515 2.28864V2.87457C5.53515 3.10767 5.44256 3.33123 5.27773 3.49605C5.1129 3.66088 4.88935 3.75348 4.65625 3.75348H3.25C3.0169 3.75348 2.79335 3.66088 2.62852 3.49605C2.46369 3.33123 2.37109 3.10767 2.37109 2.87457V2.28864Z" fill="white"/>
</svg>
